<mxfile host="app.diagrams.net" modified="2020-10-26T08:54:23.199Z" agent="5.0 (Windows NT 10.0; Win64; x64) AppleWebKit/537.36 (KHTML, like Gecko) Chrome/83.0.4103.106 Whale/2.8.107.16 Safari/537.36" etag="g48EqknYd2f7ZU-X9N1Y" version="13.8.2" type="github">
  <diagram id="kgpKYQtTHZ0yAKxKKP6v" name="Page-1">
    <mxGraphModel dx="1372" dy="794" grid="1" gridSize="10" guides="1" tooltips="1" connect="1" arrows="1" fold="1" page="1" pageScale="1" pageWidth="850" pageHeight="1100" math="0" shadow="0">
      <root>
        <mxCell id="0" />
        <mxCell id="1" parent="0" />
        <mxCell id="mMyVR-nKrES3DRgF97Yc-17" value="alt" style="shape=umlFrame;whiteSpace=wrap;html=1;" vertex="1" parent="1">
          <mxGeometry x="460" y="140" width="410" height="450" as="geometry" />
        </mxCell>
        <mxCell id="3nuBFxr9cyL0pnOWT2aG-1" value=":Manager" style="shape=umlLifeline;perimeter=lifelinePerimeter;container=1;collapsible=0;recursiveResize=0;rounded=0;shadow=0;strokeWidth=1;" parent="1" vertex="1">
          <mxGeometry x="80" y="40" width="100" height="300" as="geometry" />
        </mxCell>
        <mxCell id="3nuBFxr9cyL0pnOWT2aG-2" value="" style="points=[];perimeter=orthogonalPerimeter;rounded=0;shadow=0;strokeWidth=1;" parent="3nuBFxr9cyL0pnOWT2aG-1" vertex="1">
          <mxGeometry x="45" y="70" width="10" height="190" as="geometry" />
        </mxCell>
        <mxCell id="3nuBFxr9cyL0pnOWT2aG-3" value="dispatch" style="verticalAlign=bottom;startArrow=oval;endArrow=block;startSize=8;shadow=0;strokeWidth=1;" parent="3nuBFxr9cyL0pnOWT2aG-1" target="3nuBFxr9cyL0pnOWT2aG-2" edge="1">
          <mxGeometry relative="1" as="geometry">
            <mxPoint x="-15" y="70" as="sourcePoint" />
          </mxGeometry>
        </mxCell>
        <mxCell id="3nuBFxr9cyL0pnOWT2aG-4" value="" style="points=[];perimeter=orthogonalPerimeter;rounded=0;shadow=0;strokeWidth=1;" parent="3nuBFxr9cyL0pnOWT2aG-1" vertex="1">
          <mxGeometry x="50" y="120" width="10" height="80" as="geometry" />
        </mxCell>
        <mxCell id="3nuBFxr9cyL0pnOWT2aG-5" value=":Agent" style="shape=umlLifeline;perimeter=lifelinePerimeter;container=1;collapsible=0;recursiveResize=0;rounded=0;shadow=0;strokeWidth=1;" parent="1" vertex="1">
          <mxGeometry x="260" y="40" width="100" height="300" as="geometry" />
        </mxCell>
        <mxCell id="3nuBFxr9cyL0pnOWT2aG-6" value="" style="points=[];perimeter=orthogonalPerimeter;rounded=0;shadow=0;strokeWidth=1;" parent="3nuBFxr9cyL0pnOWT2aG-5" vertex="1">
          <mxGeometry x="45" y="80" width="10" height="160" as="geometry" />
        </mxCell>
        <mxCell id="3nuBFxr9cyL0pnOWT2aG-7" value="return" style="verticalAlign=bottom;endArrow=open;dashed=1;endSize=8;exitX=0;exitY=0.95;shadow=0;strokeWidth=1;" parent="1" source="3nuBFxr9cyL0pnOWT2aG-6" target="3nuBFxr9cyL0pnOWT2aG-2" edge="1">
          <mxGeometry relative="1" as="geometry">
            <mxPoint x="235" y="196" as="targetPoint" />
          </mxGeometry>
        </mxCell>
        <mxCell id="3nuBFxr9cyL0pnOWT2aG-8" value="dispatch" style="verticalAlign=bottom;endArrow=block;entryX=0;entryY=0;shadow=0;strokeWidth=1;" parent="1" source="3nuBFxr9cyL0pnOWT2aG-2" target="3nuBFxr9cyL0pnOWT2aG-6" edge="1">
          <mxGeometry relative="1" as="geometry">
            <mxPoint x="235" y="120" as="sourcePoint" />
          </mxGeometry>
        </mxCell>
        <mxCell id="3nuBFxr9cyL0pnOWT2aG-9" value="callback" style="verticalAlign=bottom;endArrow=block;entryX=1;entryY=0;shadow=0;strokeWidth=1;" parent="1" source="3nuBFxr9cyL0pnOWT2aG-6" target="3nuBFxr9cyL0pnOWT2aG-4" edge="1">
          <mxGeometry relative="1" as="geometry">
            <mxPoint x="200" y="160" as="sourcePoint" />
          </mxGeometry>
        </mxCell>
        <mxCell id="3nuBFxr9cyL0pnOWT2aG-10" value="return" style="verticalAlign=bottom;endArrow=open;dashed=1;endSize=8;exitX=1;exitY=0.95;shadow=0;strokeWidth=1;" parent="1" source="3nuBFxr9cyL0pnOWT2aG-4" target="3nuBFxr9cyL0pnOWT2aG-6" edge="1">
          <mxGeometry relative="1" as="geometry">
            <mxPoint x="200" y="217" as="targetPoint" />
          </mxGeometry>
        </mxCell>
        <mxCell id="mMyVR-nKrES3DRgF97Yc-1" value=":Manager" style="shape=umlLifeline;perimeter=lifelinePerimeter;container=1;collapsible=0;recursiveResize=0;rounded=0;shadow=0;strokeWidth=1;" vertex="1" parent="1">
          <mxGeometry x="520" y="40" width="100" height="640" as="geometry" />
        </mxCell>
        <mxCell id="mMyVR-nKrES3DRgF97Yc-2" value="" style="points=[];perimeter=orthogonalPerimeter;rounded=0;shadow=0;strokeWidth=1;" vertex="1" parent="mMyVR-nKrES3DRgF97Yc-1">
          <mxGeometry x="45" y="70" width="10" height="190" as="geometry" />
        </mxCell>
        <mxCell id="mMyVR-nKrES3DRgF97Yc-4" value="" style="points=[];perimeter=orthogonalPerimeter;rounded=0;shadow=0;strokeWidth=1;" vertex="1" parent="mMyVR-nKrES3DRgF97Yc-1">
          <mxGeometry x="50" y="120" width="10" height="80" as="geometry" />
        </mxCell>
        <mxCell id="mMyVR-nKrES3DRgF97Yc-11" value="연결 요청" style="verticalAlign=bottom;endArrow=block;entryX=1;entryY=0;shadow=0;strokeWidth=1;" edge="1" target="mMyVR-nKrES3DRgF97Yc-15" parent="mMyVR-nKrES3DRgF97Yc-1">
          <mxGeometry relative="1" as="geometry">
            <mxPoint x="225" y="120" as="sourcePoint" />
          </mxGeometry>
        </mxCell>
        <mxCell id="mMyVR-nKrES3DRgF97Yc-12" value="상태 할당(작전)" style="verticalAlign=bottom;endArrow=open;dashed=1;endSize=8;exitX=1;exitY=0.95;shadow=0;strokeWidth=1;" edge="1" source="mMyVR-nKrES3DRgF97Yc-15" parent="mMyVR-nKrES3DRgF97Yc-1">
          <mxGeometry relative="1" as="geometry">
            <mxPoint x="225" y="196" as="targetPoint" />
          </mxGeometry>
        </mxCell>
        <mxCell id="mMyVR-nKrES3DRgF97Yc-13" value=":Manager" style="shape=umlLifeline;perimeter=lifelinePerimeter;container=1;collapsible=0;recursiveResize=0;rounded=0;shadow=0;strokeWidth=1;" vertex="1" parent="mMyVR-nKrES3DRgF97Yc-1">
          <mxGeometry width="100" height="640" as="geometry" />
        </mxCell>
        <mxCell id="mMyVR-nKrES3DRgF97Yc-14" value="" style="points=[];perimeter=orthogonalPerimeter;rounded=0;shadow=0;strokeWidth=1;" vertex="1" parent="mMyVR-nKrES3DRgF97Yc-13">
          <mxGeometry x="45" y="70" width="10" height="530" as="geometry" />
        </mxCell>
        <mxCell id="mMyVR-nKrES3DRgF97Yc-15" value="" style="points=[];perimeter=orthogonalPerimeter;rounded=0;shadow=0;strokeWidth=1;" vertex="1" parent="mMyVR-nKrES3DRgF97Yc-13">
          <mxGeometry x="50" y="120" width="10" height="80" as="geometry" />
        </mxCell>
        <mxCell id="mMyVR-nKrES3DRgF97Yc-28" value="" style="points=[];perimeter=orthogonalPerimeter;rounded=0;shadow=0;strokeWidth=1;" vertex="1" parent="mMyVR-nKrES3DRgF97Yc-1">
          <mxGeometry x="50" y="120" width="10" height="80" as="geometry" />
        </mxCell>
        <mxCell id="mMyVR-nKrES3DRgF97Yc-5" value=":Agent" style="shape=umlLifeline;perimeter=lifelinePerimeter;container=1;collapsible=0;recursiveResize=0;rounded=0;shadow=0;strokeWidth=1;" vertex="1" parent="1">
          <mxGeometry x="700" y="40" width="100" height="640" as="geometry" />
        </mxCell>
        <mxCell id="mMyVR-nKrES3DRgF97Yc-6" value="" style="points=[];perimeter=orthogonalPerimeter;rounded=0;shadow=0;strokeWidth=1;" vertex="1" parent="mMyVR-nKrES3DRgF97Yc-5">
          <mxGeometry x="45" y="80" width="10" height="520" as="geometry" />
        </mxCell>
        <mxCell id="mMyVR-nKrES3DRgF97Yc-24" value="" style="html=1;points=[];perimeter=orthogonalPerimeter;" vertex="1" parent="mMyVR-nKrES3DRgF97Yc-5">
          <mxGeometry x="50" y="230" width="10" height="40" as="geometry" />
        </mxCell>
        <mxCell id="mMyVR-nKrES3DRgF97Yc-25" value="현재 Linux 계정 &lt;br&gt;HA(Operation) 전환" style="edgeStyle=orthogonalEdgeStyle;html=1;align=left;spacingLeft=2;endArrow=block;rounded=0;entryX=1;entryY=0;" edge="1" target="mMyVR-nKrES3DRgF97Yc-24" parent="mMyVR-nKrES3DRgF97Yc-5">
          <mxGeometry relative="1" as="geometry">
            <mxPoint x="55" y="210" as="sourcePoint" />
            <Array as="points">
              <mxPoint x="80" y="210" />
            </Array>
          </mxGeometry>
        </mxCell>
        <mxCell id="mMyVR-nKrES3DRgF97Yc-18" value="" style="endArrow=none;dashed=1;html=1;" edge="1" parent="1">
          <mxGeometry width="50" height="50" relative="1" as="geometry">
            <mxPoint x="460" y="339.5" as="sourcePoint" />
            <mxPoint x="870" y="339" as="targetPoint" />
          </mxGeometry>
        </mxCell>
        <mxCell id="mMyVR-nKrES3DRgF97Yc-21" value="[작전 없을 시]" style="text;html=1;strokeColor=none;fillColor=none;align=center;verticalAlign=middle;whiteSpace=wrap;rounded=0;" vertex="1" parent="1">
          <mxGeometry x="470" y="180" width="90" height="20" as="geometry" />
        </mxCell>
        <mxCell id="mMyVR-nKrES3DRgF97Yc-22" value="[작전 있을 시]" style="text;html=1;strokeColor=none;fillColor=none;align=center;verticalAlign=middle;whiteSpace=wrap;rounded=0;" vertex="1" parent="1">
          <mxGeometry x="475" y="350" width="80" height="20" as="geometry" />
        </mxCell>
        <mxCell id="mMyVR-nKrES3DRgF97Yc-27" value="상태보고" style="html=1;verticalAlign=bottom;endArrow=block;entryX=0.9;entryY=0.396;entryDx=0;entryDy=0;entryPerimeter=0;exitX=0.2;exitY=0.383;exitDx=0;exitDy=0;exitPerimeter=0;" edge="1" parent="1" source="mMyVR-nKrES3DRgF97Yc-6" target="mMyVR-nKrES3DRgF97Yc-14">
          <mxGeometry width="80" relative="1" as="geometry">
            <mxPoint x="740" y="320" as="sourcePoint" />
            <mxPoint x="660" y="320" as="targetPoint" />
          </mxGeometry>
        </mxCell>
        <mxCell id="mMyVR-nKrES3DRgF97Yc-33" value="" style="points=[];perimeter=orthogonalPerimeter;rounded=0;shadow=0;strokeWidth=1;" vertex="1" parent="1">
          <mxGeometry x="570" y="400" width="10" height="80" as="geometry" />
        </mxCell>
        <mxCell id="mMyVR-nKrES3DRgF97Yc-34" value="연결 요청" style="verticalAlign=bottom;endArrow=block;entryX=1;entryY=0;shadow=0;strokeWidth=1;" edge="1" parent="1" target="mMyVR-nKrES3DRgF97Yc-36">
          <mxGeometry relative="1" as="geometry">
            <mxPoint x="745" y="400" as="sourcePoint" />
          </mxGeometry>
        </mxCell>
        <mxCell id="mMyVR-nKrES3DRgF97Yc-35" value="상태 할당(대기)" style="verticalAlign=bottom;endArrow=open;dashed=1;endSize=8;exitX=1;exitY=0.95;shadow=0;strokeWidth=1;" edge="1" parent="1" source="mMyVR-nKrES3DRgF97Yc-36">
          <mxGeometry relative="1" as="geometry">
            <mxPoint x="745" y="476" as="targetPoint" />
          </mxGeometry>
        </mxCell>
        <mxCell id="mMyVR-nKrES3DRgF97Yc-36" value="" style="points=[];perimeter=orthogonalPerimeter;rounded=0;shadow=0;strokeWidth=1;" vertex="1" parent="1">
          <mxGeometry x="570" y="400" width="10" height="80" as="geometry" />
        </mxCell>
        <mxCell id="mMyVR-nKrES3DRgF97Yc-37" value="" style="points=[];perimeter=orthogonalPerimeter;rounded=0;shadow=0;strokeWidth=1;" vertex="1" parent="1">
          <mxGeometry x="570" y="400" width="10" height="80" as="geometry" />
        </mxCell>
        <mxCell id="mMyVR-nKrES3DRgF97Yc-38" value="" style="html=1;points=[];perimeter=orthogonalPerimeter;" vertex="1" parent="1">
          <mxGeometry x="750" y="510" width="10" height="40" as="geometry" />
        </mxCell>
        <mxCell id="mMyVR-nKrES3DRgF97Yc-39" value="현재 Linux 계정 &lt;br&gt;HA(Operation) 전환" style="edgeStyle=orthogonalEdgeStyle;html=1;align=left;spacingLeft=2;endArrow=block;rounded=0;entryX=1;entryY=0;" edge="1" parent="1" target="mMyVR-nKrES3DRgF97Yc-38">
          <mxGeometry relative="1" as="geometry">
            <mxPoint x="755" y="490" as="sourcePoint" />
            <Array as="points">
              <mxPoint x="780" y="490" />
            </Array>
          </mxGeometry>
        </mxCell>
        <mxCell id="mMyVR-nKrES3DRgF97Yc-42" value="상태보고" style="html=1;verticalAlign=bottom;endArrow=block;entryX=0.9;entryY=0.396;entryDx=0;entryDy=0;entryPerimeter=0;exitX=0.2;exitY=0.383;exitDx=0;exitDy=0;exitPerimeter=0;" edge="1" parent="1">
          <mxGeometry width="80" relative="1" as="geometry">
            <mxPoint x="747" y="559.1600000000001" as="sourcePoint" />
            <mxPoint x="574" y="559.8800000000001" as="targetPoint" />
          </mxGeometry>
        </mxCell>
      </root>
    </mxGraphModel>
  </diagram>
</mxfile>
